<?xml version="1.0" encoding="utf-8"?>
<!-- Generator: Adobe Illustrator 24.3.0, SVG Export Plug-In . SVG Version: 6.00 Build 0)  -->
<svg version="1.1"
	 id="svg3446" xmlns:cc="http://creativecommons.org/ns#" xmlns:dc="http://purl.org/dc/elements/1.1/" xmlns:rdf="http://www.w3.org/1999/02/22-rdf-syntax-ns#" xmlns:svg="http://www.w3.org/2000/svg"
	 xmlns="http://www.w3.org/2000/svg" xmlns:xlink="http://www.w3.org/1999/xlink" x="0px" y="0px" viewBox="0 0 202.6 242.1"
	 style="enable-background:new 0 0 202.6 242.1;" xml:space="preserve">
<style type="text/css">
	.st0{fill:#6495ED;}
</style>
<g id="g3448" transform="matrix(2.1480043,0,0,2.1480043,-14.160444,-11.218538)">
	<path id="path3450" class="st0" d="M77.5,41l2.4,2.4c2.4,3.7,5.8,7.4,9.1,9.8c-0.7-1.5-0.7-3.2-1.5-4.7
		C86.1,44.3,81.3,42.3,77.5,41"/>
	<path id="path3452" class="st0" d="M29,41.5c-2.9,1.2-6.1,2.1-8.3,4.9c-1.7,2.2-2.2,4.9-3.1,7.4l2.6-2.2
		C24.1,48.8,25.2,44.3,29,41.5"/>
	<path id="path3454" class="st0" d="M86.7,45.3c3.3,2.2,3.1,6.2,4.2,9.4c0.3,1.4,1.1,2.6,1.2,4c-1.8-5.1-7.7-5.7-9.9-10.5l0.7,2.8
		c1.7,5.5,8.2,6.8,10.7,11.8c-0.8-3.6,0.6-7.3-0.5-10.9C92.2,48.9,89.7,46.2,86.7,45.3"/>
	<path id="path3456" class="st0" d="M14.7,50.2c-2.5,3.7-0.5,8.8-1.2,13.2c0.9-1.8,2.6-3.5,4.1-4.8c3.5-2.3,6.6-5.8,6.8-9.9
		c-1.9,4.8-8,5.4-9.5,10.5h-0.2c2.3-4.2,1-10.2,5.3-13.3C17.8,46.6,15.9,48.2,14.7,50.2"/>
	<path id="path3458" class="st0" d="M93.8,51.3c2.3,3.3,1,8.1,0.8,12c0.1,1.9,0.4,3.8,0.3,5.7c-0.3-0.7-0.3-1.6-0.5-2.3
		c-0.9-4.2-5.9-6.3-7.9-9.9c0.3,1.2,0.5,2.4,1,3.6c1.7,5,6.9,8.4,7.6,13.8c0.5-5.2,4.1-9.3,2.8-15C97.1,56.3,95.9,53.5,93.8,51.3"/>
	<path id="path3460" class="st0" d="M13,52c-1.8,2.1-3,4.7-3.6,7.4c-1.2,5.7,2.2,10.1,3,15.3c1-6.5,7.9-10.7,8.2-17.5
		c-2,3.7-6.9,5.8-7.8,10.2c0,0.7-0.2,1.4-0.4,2.1l-0.2-0.2l0.2-2.8C13.4,61.5,10.4,56.3,13,52"/>
	<path id="path3462" class="st0" d="M99,63.4c0.9,5-2.2,8.8-3.4,13.2c-0.7,1.7-0.4,3.8-1.4,5.3c-0.1-0.8,0.4-1.6,0.5-2.5
		c0.8-5.6-4.1-8.9-5.2-13.7c-0.1,1.3,0,2.5,0.2,3.6c0.3,5.9,4.2,10.7,3,16.9c1.1-1.5,2-2.9,3.3-4.4C100.4,77.1,101.6,69.3,99,63.4"
		/>
	<path id="path3464" class="st0" d="M8.3,64C6.7,67.8,6.8,72.7,8,76.5c1.1,4,4.9,6.8,6.8,10.2c-0.3-1.5-0.3-3.3-0.1-4.8
		c1.3-5.2,3.3-10.2,3-15.9c-0.8,4.1-4.5,7-4.9,11.3c-0.3,1.7,0.2,3.4,0.4,5c-0.4-0.8-0.8-1.7-0.8-2.7C11.8,74.2,7.3,70.1,8.3,64"/>
	<path id="path3466" class="st0" d="M90.2,76.3c-2.9,6.3-0.8,14.8-4.4,20.8l0.6-0.5c7-3.8,15.4-10.2,14-19.6
		c-0.1,1.3-0.5,2.4-1.1,3.5c-2.7,4.2-7.4,7.7-9.7,12.1c-0.1,0.2-0.3,0.2-0.4,0.1l0.5-0.6C92.9,87.4,90,81.6,90.2,76.3"/>
	<path id="path3468" class="st0" d="M17.3,76.9c0.4,2-0.3,3.8-0.6,5.7c-1.1,3.6-0.5,7.7,1.5,10.7c-0.7-0.3-1.1-1.2-1.5-1.9
		c-2.6-4.9-9-7.7-9.6-13.6c0,2.1,0,4.4,0.6,6.3c1.8,6.6,9.1,10,14,13.4C18.2,91.4,20.1,83.2,17.3,76.9"/>
	<path id="path3470" class="st0" d="M87.2,85.7l-2.6,3.4c-3.5,4.8-3.1,11.4-8,15.5c2.5-0.8,5.3-1.1,7.9-1.7
		c5.9-1.5,12-7.2,12.8-13.2c-1.1,2.5-3.3,4.4-5.5,5.8c-3.8,1.8-7.7,3.8-11,6.7h-0.4l0.2-0.3C86.3,98.1,84.8,91,87.2,85.7"/>
	<path id="path3472" class="st0" d="M20.2,86.2l0.9,2.3c0.9,5.1,1.3,10.8,5.9,14.1l-0.1,0.1c-1.5-0.7-2.7-1.9-4-2.8
		C18.6,97,12.5,95.7,10,90.3c0.7,4,3.4,7.6,6.7,10c3.9,3.5,9.4,3.2,14.2,4.6c-1.8-1.4-2.8-2.9-3.6-4.8
		C25.6,95.2,24.1,90.1,20.2,86.2"/>
	<path id="path3474" class="st0" d="M80.6,95.7c-3.6,2.3-6.6,6.3-9.9,8.8c-1.8,1.4-3.9,1.8-6,2.4c4.6,0.3,8.5,2.5,13.4,2.2
		c5.2-0.2,10-3.3,12.4-7.9c-3.6,4.3-9.3,4-14.6,4.5c-1.8,0.2-3.5,0.7-5.3,0.7c0.1-0.1,0.1-0.2,0.2-0.2
		C76.5,105.9,78.2,99.6,80.6,95.7"/>
	<path id="path3476" class="st0" d="M26.9,96.1c2.4,2.8,2.5,6.5,5.8,8.8c1.3,1.1,3,1.3,4.4,1.9c-1.6,0.2-3-0.5-4.6-0.6
		c-5.3-0.7-11.4,0-15.3-4.3c1.8,3.1,4.9,5.8,8.2,6.8c6.2,2.4,11.8-1.1,17.7-1.6C36.1,106.8,32.4,99.3,26.9,96.1"/>
	<path id="path3478" class="st0" d="M71.4,110.6c-5.3-2.4-11.4-5.1-17.6-2.8c-3.1-1-7.2-1-10.3,0c-5.4,2.5-12.9,6.2-18.6,2.1
		c1.1,1.3,2.3,1.9,3.5,2.8c3.7,2.4,9.1,2.2,12.9,0.2c3.5-1.5,6.2-5.9,10.7-4.5c-3.8,1.9-7.3,4.2-10.5,7.5l1.9,1.6
		c2.8-3.7,6.5-6.7,10.6-8.5c3.9,1.9,7.5,5.1,10.4,8.4l1.9-1.7c-3.1-3-6.7-5.4-10.4-7.3c1-0.3,2.1-0.2,3.1-0.1
		c4,1.8,7.1,5.3,11.7,5.8c4.8,0.8,9.1-1.2,12.1-4.7l-2.3,1.2C77.8,111.8,74.2,111.5,71.4,110.6"/>
	<path id="path3480" class="st0" d="M55.2,6.4c-0.2,8,2.9,14.7,6.1,21.3C67.6,39.4,77.6,49.6,81,62.4c2.7,11.2,0.6,23.5-7.2,32
		c-5.5,5.9-13.1,8.3-20.9,9.4l-0.2-0.2c4.2-3.8,5.1-9.9,3.4-15.2c-2-6.3-7.1-11.4-9.6-17.6c-3.1-6.1-5.2-12.8-4.5-20.3
		c0.5-4.8,1.1-9.5,2.4-14.1c0.1-0.1,0.3,0,0.4,0c-2.9,13.3,6.1,23.4,14.7,32.8c3.8,4.7,6.7,9.7,7.7,15.4c0.5-2-0.1-4.4-0.6-6.3
		C63.4,67.9,57.6,58.3,54,47.9c-2.1-6.7-3.1-13.9-3.4-21.3c0.1-0.1,0.2-0.1,0.3-0.1c0.2,10.6,7,18.6,12.7,27.1
		c5.8,7.4,11,15.1,11.8,24.5h0.1c1.5-6.9-0.4-14-3-20L64.9,42C60,30.5,54.5,19.2,54.8,5.8C55.2,5.4,55.1,6.2,55.2,6.4"/>
	<path id="path3482" class="st0" d="M29.7,55.1C27.6,59.8,27.5,65.9,29,71c1.7,6.9,8.5,13,15.3,15.1c-6.8-7.7-8.4-18.4-6.7-28.7
		c0-0.1,0.2,0,0.3-0.1c-0.5,4.7,0.2,9.3,1.8,13.3c1.9,5.5,5.7,10.3,10.2,14.6c2.9,3.6,4.9,8.8,2.6,13.3c-0.9,1.6-2.2,2.9-3.8,4.2
		l-0.3,0c0.6-1.8-1-3-2.3-4.1c-7.6-4.3-17.1-9.9-19.7-18.5c-2.7-8.5,0.1-17.4,2.9-25l0.3-0.2L29.7,55.1"/>
</g>
</svg>
